<?xml version="1.0" encoding="UTF-8" standalone="no"?><!DOCTYPE svg PUBLIC "-//W3C//DTD SVG 1.1//EN" "http://www.w3.org/Graphics/SVG/1.1/DTD/svg11.dtd"><svg width="100%" height="100%" viewBox="0 0 2003 584" version="1.1" xmlns="http://www.w3.org/2000/svg" xmlns:xlink="http://www.w3.org/1999/xlink" xml:space="preserve" xmlns:serif="http://www.serif.com/" style="fill-rule:evenodd;clip-rule:evenodd;stroke-linejoin:round;stroke-miterlimit:1.41421;"><g id="Artboard2"><path d="M0.267,283.203c47.347,26.071 121.078,58.017 209.74,56.153c92.88,-1.952 115.245,-38.155 224.2,-46.432c114.343,-8.69 129.282,28.705 249.221,24.994c137.989,-4.271 144.628,-54.292 259.641,-53.976c141.954,0.388 161.901,76.834 301.486,77.471c128.862,0.589 142.56,-64.369 270.072,-61.343c126.338,3.002 160.89,67.954 284.063,68.677c89.23,0.522 159.145,-33.019 204.51,-58.429l0,-134.028l-2003.2,0l0.262,126.913l0.005,0Z" style="fill:#fff;fill-rule:nonzero;"/><path d="M1.815,219.737c96.066,40.502 178.974,53.374 247.093,46.602c97.164,-9.659 112.758,-54.249 205.126,-58.006c106.319,-4.322 141.405,52.315 245.714,48.063c104.123,-4.247 118.234,-62.705 215.213,-65.054c107.453,-2.603 137.995,67.981 252.295,69.285c118.789,1.352 160.274,-74.035 273.915,-69.29c84.861,3.543 168.554,58.839 258.702,73.976c70.04,11.761 113.863,-6.02 303.327,-81.048l0,-116.342l-2001.38,0l0,151.814Z" style="fill:#20888d;fill-rule:nonzero;"/><path id="i" d="M0,70.675c68.333,56.407 169.483,120.098 284.031,113.988c118.752,-6.331 143.638,-82.39 271.535,-92.494c158.243,-12.497 205.841,96.861 360.884,85.657c148.751,-10.754 178.812,-88.653 299.17,-79.549c121.919,9.223 142.08,93.688 252.89,94.877c106.223,1.138 137.754,-76.611 255.908,-89.044c67.743,-7.129 158.694,-9.204 278.777,92.686l0,-195.818l-2002.55,0l-0.643,69.697l-0.005,0Z" style="fill:#0d6386;fill-rule:nonzero;"/></g></svg>